<svg width="756" height="150" viewBox="0 0 756 150" fill="none" xmlns="http://www.w3.org/2000/svg">
<path d="M707.14 8V1H710.16C710.94 1 711.543 1.15667 711.97 1.47C712.403 1.78333 712.62 2.22667 712.62 2.8C712.62 3.18 712.53 3.5 712.35 3.76C712.177 4.02 711.937 4.21667 711.63 4.35C711.33 4.48333 711 4.55 710.64 4.55L710.81 4.31C711.257 4.31 711.64 4.38 711.96 4.52C712.287 4.65333 712.54 4.85667 712.72 5.13C712.9 5.39667 712.99 5.73 712.99 6.13C712.99 6.72333 712.77 7.18333 712.33 7.51C711.897 7.83667 711.24 8 710.36 8H707.14ZM707.88 7.39H710.35C710.963 7.39 711.433 7.28667 711.76 7.08C712.087 6.86667 712.25 6.53 712.25 6.07C712.25 5.61667 712.087 5.28667 711.76 5.08C711.433 4.86667 710.963 4.76 710.35 4.76H707.8V4.15H710.11C710.67 4.15 711.103 4.04333 711.41 3.83C711.723 3.61667 711.88 3.3 711.88 2.88C711.88 2.45333 711.723 2.13667 711.41 1.93C711.103 1.71667 710.67 1.61 710.11 1.61H707.88V7.39ZM717.819 8V6.84L717.789 6.65V4.71C717.789 4.26333 717.662 3.92 717.409 3.68C717.162 3.44 716.792 3.32 716.299 3.32C715.959 3.32 715.636 3.37667 715.329 3.49C715.022 3.60333 714.762 3.75333 714.549 3.94L714.229 3.41C714.496 3.18333 714.816 3.01 715.189 2.89C715.562 2.76333 715.956 2.7 716.369 2.7C717.049 2.7 717.572 2.87 717.939 3.21C718.312 3.54333 718.499 4.05333 718.499 4.74V8H717.819ZM716.009 8.05C715.616 8.05 715.272 7.98667 714.979 7.86C714.692 7.72667 714.472 7.54667 714.319 7.32C714.166 7.08667 714.089 6.82 714.089 6.52C714.089 6.24667 714.152 6 714.279 5.78C714.412 5.55333 714.626 5.37333 714.919 5.24C715.219 5.1 715.619 5.03 716.119 5.03H717.929V5.56H716.139C715.632 5.56 715.279 5.65 715.079 5.83C714.886 6.01 714.789 6.23333 714.789 6.5C714.789 6.8 714.906 7.04 715.139 7.22C715.372 7.4 715.699 7.49 716.119 7.49C716.519 7.49 716.862 7.4 717.149 7.22C717.442 7.03333 717.656 6.76667 717.789 6.42L717.949 6.91C717.816 7.25667 717.582 7.53333 717.249 7.74C716.922 7.94667 716.509 8.05 716.009 8.05ZM722.608 8.05C722.088 8.05 721.621 7.93667 721.208 7.71C720.801 7.47667 720.481 7.16 720.248 6.76C720.014 6.35333 719.898 5.89 719.898 5.37C719.898 4.84333 720.014 4.38 720.248 3.98C720.481 3.58 720.801 3.26667 721.208 3.04C721.621 2.81333 722.088 2.7 722.608 2.7C723.054 2.7 723.458 2.78667 723.818 2.96C724.178 3.13333 724.461 3.39333 724.668 3.74L724.138 4.1C723.958 3.83333 723.734 3.63667 723.468 3.51C723.201 3.38333 722.911 3.32 722.598 3.32C722.224 3.32 721.888 3.40667 721.588 3.58C721.288 3.74667 721.051 3.98333 720.878 4.29C720.704 4.59667 720.618 4.95667 720.618 5.37C720.618 5.78333 720.704 6.14333 720.878 6.45C721.051 6.75667 721.288 6.99667 721.588 7.17C721.888 7.33667 722.224 7.42 722.598 7.42C722.911 7.42 723.201 7.35667 723.468 7.23C723.734 7.10333 723.958 6.91 724.138 6.65L724.668 7.01C724.461 7.35 724.178 7.61 723.818 7.79C723.458 7.96333 723.054 8.05 722.608 8.05ZM726.544 6.64L726.564 5.73L729.834 2.75H730.704L728.394 4.96L727.994 5.3L726.544 6.64ZM725.984 8V0.58H726.694V8H725.984ZM730.054 8L727.864 5.27L728.324 4.72L730.924 8H730.054ZM738.034 4.13H741.734V4.76H738.034V4.13ZM738.114 7.36H742.324V8H737.374V1H742.174V1.64H738.114V7.36ZM746.594 2.7C747.02 2.7 747.394 2.78333 747.714 2.95C748.04 3.11 748.294 3.35667 748.474 3.69C748.66 4.02333 748.754 4.44333 748.754 4.95V8H748.044V5.02C748.044 4.46667 747.904 4.05 747.624 3.77C747.35 3.48333 746.964 3.34 746.464 3.34C746.09 3.34 745.764 3.41667 745.484 3.57C745.21 3.71667 744.997 3.93333 744.844 4.22C744.697 4.5 744.624 4.84 744.624 5.24V8H743.914V2.75H744.594V4.19L744.484 3.92C744.65 3.54 744.917 3.24333 745.284 3.03C745.65 2.81 746.087 2.7 746.594 2.7ZM752.762 8.05C752.262 8.05 751.812 7.93667 751.412 7.71C751.018 7.48333 750.708 7.17 750.482 6.77C750.255 6.36333 750.142 5.89667 750.142 5.37C750.142 4.83667 750.255 4.37 750.482 3.97C750.708 3.57 751.018 3.26 751.412 3.04C751.812 2.81333 752.262 2.7 752.762 2.7C753.222 2.7 753.632 2.80333 753.992 3.01C754.358 3.21667 754.648 3.52 754.862 3.92C755.082 4.31333 755.192 4.79667 755.192 5.37C755.192 5.93667 755.085 6.42 754.872 6.82C754.658 7.22 754.368 7.52667 754.002 7.74C753.642 7.94667 753.228 8.05 752.762 8.05ZM752.812 7.42C753.185 7.42 753.518 7.33667 753.812 7.17C754.112 6.99667 754.345 6.75667 754.512 6.45C754.685 6.13667 754.772 5.77667 754.772 5.37C754.772 4.95667 754.685 4.59667 754.512 4.29C754.345 3.98333 754.112 3.74667 753.812 3.58C753.518 3.40667 753.185 3.32 752.812 3.32C752.445 3.32 752.115 3.40667 751.822 3.58C751.528 3.74667 751.295 3.98333 751.122 4.29C750.948 4.59667 750.862 4.95667 750.862 5.37C750.862 5.77667 750.948 6.13667 751.122 6.45C751.295 6.75667 751.528 6.99667 751.822 7.17C752.115 7.33667 752.445 7.42 752.812 7.42ZM754.792 8V6.42L754.862 5.36L754.762 4.3V0.58H755.472V8H754.792Z" fill="#549387"/>
<path d="M82 75V62.28H77.08V61H88.4V62.28H83.48V75H82ZM96.4584 75V72.68L96.3984 72.3V68.42C96.3984 67.5267 96.1451 66.84 95.6384 66.36C95.1451 65.88 94.4051 65.64 93.4184 65.64C92.7384 65.64 92.0918 65.7533 91.4784 65.98C90.8651 66.2067 90.3451 66.5067 89.9184 66.88L89.2784 65.82C89.8118 65.3667 90.4518 65.02 91.1984 64.78C91.9451 64.5267 92.7318 64.4 93.5584 64.4C94.9184 64.4 95.9651 64.74 96.6984 65.42C97.4451 66.0867 97.8184 67.1067 97.8184 68.48V75H96.4584ZM92.8384 75.1C92.0518 75.1 91.3651 74.9733 90.7784 74.72C90.2051 74.4533 89.7651 74.0933 89.4584 73.64C89.1518 73.1733 88.9984 72.64 88.9984 72.04C88.9984 71.4933 89.1251 71 89.3784 70.56C89.6451 70.1067 90.0718 69.7467 90.6584 69.48C91.2584 69.2 92.0584 69.06 93.0584 69.06H96.6784V70.12H93.0984C92.0851 70.12 91.3784 70.3 90.9784 70.66C90.5918 71.02 90.3984 71.4667 90.3984 72C90.3984 72.6 90.6318 73.08 91.0984 73.44C91.5651 73.8 92.2184 73.98 93.0584 73.98C93.8584 73.98 94.5451 73.8 95.1184 73.44C95.7051 73.0667 96.1318 72.5333 96.3984 71.84L96.7184 72.82C96.4518 73.5133 95.9851 74.0667 95.3184 74.48C94.6651 74.8933 93.8384 75.1 92.8384 75.1ZM101.675 75V64.5H103.095V75H101.675ZM102.395 62.18C102.102 62.18 101.855 62.08 101.655 61.88C101.455 61.68 101.355 61.44 101.355 61.16C101.355 60.88 101.455 60.6467 101.655 60.46C101.855 60.26 102.102 60.16 102.395 60.16C102.689 60.16 102.935 60.2533 103.135 60.44C103.335 60.6267 103.435 60.86 103.435 61.14C103.435 61.4333 103.335 61.68 103.135 61.88C102.949 62.08 102.702 62.18 102.395 62.18ZM107.046 75V60.16H108.466V75H107.046ZM114.558 75L110.598 64.5H111.958L115.558 74.24H114.938L118.638 64.5H119.858L123.518 74.24H122.898L126.558 64.5H127.858L123.878 75H122.538L119.018 65.84H119.438L115.898 75H114.558ZM129.996 75V64.5H131.416V75H129.996ZM130.716 62.18C130.422 62.18 130.176 62.08 129.976 61.88C129.776 61.68 129.676 61.44 129.676 61.16C129.676 60.88 129.776 60.6467 129.976 60.46C130.176 60.26 130.422 60.16 130.716 60.16C131.009 60.16 131.256 60.2533 131.456 60.44C131.656 60.6267 131.756 60.86 131.756 61.14C131.756 61.4333 131.656 61.68 131.456 61.88C131.269 62.08 131.022 62.18 130.716 62.18ZM140.727 64.4C141.58 64.4 142.327 64.5667 142.967 64.9C143.62 65.22 144.127 65.7133 144.487 66.38C144.86 67.0467 145.047 67.8867 145.047 68.9V75H143.627V69.04C143.627 67.9333 143.347 67.1 142.787 66.54C142.24 65.9667 141.467 65.68 140.467 65.68C139.72 65.68 139.067 65.8333 138.507 66.14C137.96 66.4333 137.533 66.8667 137.227 67.44C136.933 68 136.787 68.68 136.787 69.48V75H135.367V64.5H136.727V67.38L136.507 66.84C136.84 66.08 137.373 65.4867 138.107 65.06C138.84 64.62 139.713 64.4 140.727 64.4ZM153.062 75.1C152.062 75.1 151.162 74.8733 150.362 74.42C149.576 73.9667 148.956 73.34 148.502 72.54C148.049 71.7267 147.822 70.7933 147.822 69.74C147.822 68.6733 148.049 67.74 148.502 66.94C148.956 66.14 149.576 65.52 150.362 65.08C151.162 64.6267 152.062 64.4 153.062 64.4C153.982 64.4 154.802 64.6067 155.522 65.02C156.256 65.4333 156.836 66.04 157.262 66.84C157.702 67.6267 157.922 68.5933 157.922 69.74C157.922 70.8733 157.709 71.84 157.282 72.64C156.856 73.44 156.276 74.0533 155.542 74.48C154.822 74.8933 153.996 75.1 153.062 75.1ZM153.162 73.84C153.909 73.84 154.576 73.6733 155.162 73.34C155.762 72.9933 156.229 72.5133 156.562 71.9C156.909 71.2733 157.082 70.5533 157.082 69.74C157.082 68.9133 156.909 68.1933 156.562 67.58C156.229 66.9667 155.762 66.4933 155.162 66.16C154.576 65.8133 153.909 65.64 153.162 65.64C152.429 65.64 151.769 65.8133 151.182 66.16C150.596 66.4933 150.129 66.9667 149.782 67.58C149.436 68.1933 149.262 68.9133 149.262 69.74C149.262 70.5533 149.436 71.2733 149.782 71.9C150.129 72.5133 150.596 72.9933 151.182 73.34C151.769 73.6733 152.429 73.84 153.162 73.84ZM157.122 75V71.84L157.262 69.72L157.062 67.6V60.16H158.482V75H157.122ZM174.051 75.12C172.998 75.12 172.025 74.9467 171.131 74.6C170.238 74.24 169.465 73.74 168.811 73.1C168.158 72.46 167.645 71.7067 167.271 70.84C166.911 69.9733 166.731 69.0267 166.731 68C166.731 66.9733 166.911 66.0267 167.271 65.16C167.645 64.2933 168.158 63.54 168.811 62.9C169.478 62.26 170.258 61.7667 171.151 61.42C172.045 61.06 173.018 60.88 174.071 60.88C175.085 60.88 176.038 61.0533 176.931 61.4C177.825 61.7333 178.578 62.24 179.191 62.92L178.251 63.86C177.678 63.2733 177.045 62.8533 176.351 62.6C175.658 62.3333 174.911 62.2 174.111 62.2C173.271 62.2 172.491 62.3467 171.771 62.64C171.051 62.92 170.425 63.3267 169.891 63.86C169.358 64.38 168.938 64.9933 168.631 65.7C168.338 66.3933 168.191 67.16 168.191 68C168.191 68.84 168.338 69.6133 168.631 70.32C168.938 71.0133 169.358 71.6267 169.891 72.16C170.425 72.68 171.051 73.0867 171.771 73.38C172.491 73.66 173.271 73.8 174.111 73.8C174.911 73.8 175.658 73.6667 176.351 73.4C177.045 73.1333 177.678 72.7067 178.251 72.12L179.191 73.06C178.578 73.74 177.825 74.2533 176.931 74.6C176.038 74.9467 175.078 75.12 174.051 75.12ZM186.167 75.12C185.127 75.12 184.127 74.9533 183.167 74.62C182.221 74.2733 181.487 73.8333 180.967 73.3L181.547 72.16C182.041 72.64 182.701 73.0467 183.527 73.38C184.367 73.7 185.247 73.86 186.167 73.86C187.047 73.86 187.761 73.7533 188.307 73.54C188.867 73.3133 189.274 73.0133 189.527 72.64C189.794 72.2667 189.927 71.8533 189.927 71.4C189.927 70.8533 189.767 70.4133 189.447 70.08C189.141 69.7467 188.734 69.4867 188.227 69.3C187.721 69.1 187.161 68.9267 186.547 68.78C185.934 68.6333 185.321 68.48 184.707 68.32C184.094 68.1467 183.527 67.92 183.007 67.64C182.501 67.36 182.087 66.9933 181.767 66.54C181.461 66.0733 181.307 65.4667 181.307 64.72C181.307 64.0267 181.487 63.3933 181.847 62.82C182.221 62.2333 182.787 61.7667 183.547 61.42C184.307 61.06 185.281 60.88 186.467 60.88C187.254 60.88 188.034 60.9933 188.807 61.22C189.581 61.4333 190.247 61.7333 190.807 62.12L190.307 63.3C189.707 62.9 189.067 62.6067 188.387 62.42C187.721 62.2333 187.074 62.14 186.447 62.14C185.607 62.14 184.914 62.2533 184.367 62.48C183.821 62.7067 183.414 63.0133 183.147 63.4C182.894 63.7733 182.767 64.2 182.767 64.68C182.767 65.2267 182.921 65.6667 183.227 66C183.547 66.3333 183.961 66.5933 184.467 66.78C184.987 66.9667 185.554 67.1333 186.167 67.28C186.781 67.4267 187.387 67.5867 187.987 67.76C188.601 67.9333 189.161 68.16 189.667 68.44C190.187 68.7067 190.601 69.0667 190.907 69.52C191.227 69.9733 191.387 70.5667 191.387 71.3C191.387 71.98 191.201 72.6133 190.827 73.2C190.454 73.7733 189.881 74.24 189.107 74.6C188.347 74.9467 187.367 75.12 186.167 75.12ZM198.472 75.12C197.432 75.12 196.432 74.9533 195.472 74.62C194.525 74.2733 193.792 73.8333 193.272 73.3L193.852 72.16C194.345 72.64 195.005 73.0467 195.832 73.38C196.672 73.7 197.552 73.86 198.472 73.86C199.352 73.86 200.065 73.7533 200.612 73.54C201.172 73.3133 201.579 73.0133 201.832 72.64C202.099 72.2667 202.232 71.8533 202.232 71.4C202.232 70.8533 202.072 70.4133 201.752 70.08C201.445 69.7467 201.039 69.4867 200.532 69.3C200.025 69.1 199.465 68.9267 198.852 68.78C198.239 68.6333 197.625 68.48 197.012 68.32C196.399 68.1467 195.832 67.92 195.312 67.64C194.805 67.36 194.392 66.9933 194.072 66.54C193.765 66.0733 193.612 65.4667 193.612 64.72C193.612 64.0267 193.792 63.3933 194.152 62.82C194.525 62.2333 195.092 61.7667 195.852 61.42C196.612 61.06 197.585 60.88 198.772 60.88C199.559 60.88 200.339 60.9933 201.112 61.22C201.885 61.4333 202.552 61.7333 203.112 62.12L202.612 63.3C202.012 62.9 201.372 62.6067 200.692 62.42C200.025 62.2333 199.379 62.14 198.752 62.14C197.912 62.14 197.219 62.2533 196.672 62.48C196.125 62.7067 195.719 63.0133 195.452 63.4C195.199 63.7733 195.072 64.2 195.072 64.68C195.072 65.2267 195.225 65.6667 195.532 66C195.852 66.3333 196.265 66.5933 196.772 66.78C197.292 66.9667 197.859 67.1333 198.472 67.28C199.085 67.4267 199.692 67.5867 200.292 67.76C200.905 67.9333 201.465 68.16 201.972 68.44C202.492 68.7067 202.905 69.0667 203.212 69.52C203.532 69.9733 203.692 70.5667 203.692 71.3C203.692 71.98 203.505 72.6133 203.132 73.2C202.759 73.7733 202.185 74.24 201.412 74.6C200.652 74.9467 199.672 75.12 198.472 75.12Z" fill="#549387"/>
<path d="M247.894 30.084C247.147 30.084 246.457 29.9627 245.822 29.72C245.197 29.468 244.651 29.118 244.184 28.67C243.727 28.222 243.367 27.6947 243.106 27.088C242.854 26.4813 242.728 25.8187 242.728 25.1C242.728 24.3813 242.854 23.7187 243.106 23.112C243.367 22.5053 243.731 21.978 244.198 21.53C244.665 21.082 245.211 20.7367 245.836 20.494C246.471 20.242 247.161 20.116 247.908 20.116C248.655 20.116 249.336 20.2327 249.952 20.466C250.577 20.6993 251.109 21.054 251.548 21.53L250.904 22.188C250.493 21.7773 250.041 21.4833 249.546 21.306C249.051 21.1287 248.519 21.04 247.95 21.04C247.343 21.04 246.783 21.1427 246.27 21.348C245.766 21.544 245.323 21.8287 244.94 22.202C244.567 22.566 244.273 22.9953 244.058 23.49C243.853 23.9753 243.75 24.512 243.75 25.1C243.75 25.6787 243.853 26.2153 244.058 26.71C244.273 27.2047 244.567 27.6387 244.94 28.012C245.323 28.376 245.766 28.6607 246.27 28.866C246.783 29.062 247.339 29.16 247.936 29.16C248.496 29.16 249.023 29.076 249.518 28.908C250.022 28.74 250.484 28.4553 250.904 28.054L251.492 28.838C251.025 29.2487 250.479 29.5613 249.854 29.776C249.229 29.9813 248.575 30.084 247.894 30.084ZM250.498 28.712V25.1H251.492V28.838L250.498 28.712ZM254.214 30V22.65H255.208V30H254.214ZM254.718 21.026C254.513 21.026 254.34 20.956 254.2 20.816C254.06 20.676 253.99 20.508 253.99 20.312C253.99 20.116 254.06 19.9527 254.2 19.822C254.34 19.682 254.513 19.612 254.718 19.612C254.923 19.612 255.096 19.6773 255.236 19.808C255.376 19.9387 255.446 20.102 255.446 20.298C255.446 20.5033 255.376 20.676 255.236 20.816C255.105 20.956 254.933 21.026 254.718 21.026ZM260.298 30.07C259.607 30.07 259.075 29.8833 258.702 29.51C258.329 29.1367 258.142 28.6093 258.142 27.928V21.026H259.136V27.872C259.136 28.3013 259.243 28.6327 259.458 28.866C259.682 29.0993 259.999 29.216 260.41 29.216C260.849 29.216 261.213 29.09 261.502 28.838L261.852 29.552C261.656 29.7293 261.418 29.86 261.138 29.944C260.867 30.028 260.587 30.07 260.298 30.07ZM256.826 23.476V22.65H261.376V23.476H256.826ZM269.915 30.084C269.281 30.084 268.716 29.9813 268.221 29.776C267.727 29.5613 267.335 29.2673 267.045 28.894C266.765 28.5207 266.625 28.0867 266.625 27.592C266.625 27.172 266.719 26.7893 266.905 26.444C267.092 26.0893 267.391 25.744 267.801 25.408C268.221 25.0627 268.777 24.7033 269.467 24.33C270.055 24.0033 270.513 23.7233 270.839 23.49C271.175 23.2473 271.413 23.0187 271.553 22.804C271.693 22.58 271.763 22.342 271.763 22.09C271.763 21.726 271.637 21.432 271.385 21.208C271.143 20.984 270.793 20.872 270.335 20.872C269.841 20.872 269.458 20.998 269.187 21.25C268.917 21.4927 268.781 21.81 268.781 22.202C268.781 22.398 268.809 22.5847 268.865 22.762C268.931 22.9393 269.047 23.1353 269.215 23.35C269.393 23.5647 269.635 23.8353 269.943 24.162L275.123 29.496L274.549 30.154L269.145 24.596C268.819 24.2507 268.557 23.952 268.361 23.7C268.175 23.4387 268.044 23.1913 267.969 22.958C267.895 22.7247 267.857 22.4773 267.857 22.216C267.857 21.796 267.955 21.432 268.151 21.124C268.357 20.8067 268.646 20.564 269.019 20.396C269.393 20.2187 269.831 20.13 270.335 20.13C270.793 20.13 271.189 20.2093 271.525 20.368C271.871 20.5173 272.137 20.7367 272.323 21.026C272.519 21.3153 272.617 21.6653 272.617 22.076C272.617 22.4307 272.529 22.762 272.351 23.07C272.183 23.378 271.903 23.6813 271.511 23.98C271.119 24.2693 270.587 24.596 269.915 24.96C269.327 25.2867 268.861 25.5853 268.515 25.856C268.179 26.1267 267.941 26.3927 267.801 26.654C267.661 26.906 267.591 27.186 267.591 27.494C267.591 27.8487 267.689 28.1613 267.885 28.432C268.091 28.6933 268.371 28.8987 268.725 29.048C269.089 29.188 269.505 29.258 269.971 29.258C270.625 29.258 271.208 29.1227 271.721 28.852C272.235 28.5813 272.664 28.1707 273.009 27.62C273.364 27.0693 273.621 26.3787 273.779 25.548L274.577 25.8C274.4 26.7333 274.097 27.5173 273.667 28.152C273.238 28.7867 272.706 29.2673 272.071 29.594C271.437 29.9207 270.718 30.084 269.915 30.084ZM284.863 30.084C284.116 30.084 283.425 29.9627 282.791 29.72C282.165 29.468 281.619 29.118 281.153 28.67C280.695 28.222 280.336 27.6947 280.075 27.088C279.823 26.4813 279.697 25.8187 279.697 25.1C279.697 24.3813 279.823 23.7187 280.075 23.112C280.336 22.5053 280.7 21.978 281.167 21.53C281.633 21.082 282.179 20.7367 282.805 20.494C283.439 20.242 284.13 20.116 284.877 20.116C285.623 20.116 286.305 20.2327 286.921 20.466C287.546 20.6993 288.078 21.054 288.517 21.53L287.873 22.188C287.462 21.7773 287.009 21.4833 286.515 21.306C286.02 21.1287 285.488 21.04 284.919 21.04C284.312 21.04 283.752 21.1427 283.239 21.348C282.735 21.544 282.291 21.8287 281.909 22.202C281.535 22.566 281.241 22.9953 281.027 23.49C280.821 23.9753 280.719 24.512 280.719 25.1C280.719 25.6787 280.821 26.2153 281.027 26.71C281.241 27.2047 281.535 27.6387 281.909 28.012C282.291 28.376 282.735 28.6607 283.239 28.866C283.752 29.062 284.307 29.16 284.905 29.16C285.465 29.16 285.992 29.076 286.487 28.908C286.991 28.74 287.453 28.4553 287.873 28.054L288.461 28.838C287.994 29.2487 287.448 29.5613 286.823 29.776C286.197 29.9813 285.544 30.084 284.863 30.084ZM287.467 28.712V25.1H288.461V28.838L287.467 28.712ZM291.183 30V22.65H292.177V30H291.183ZM291.687 21.026C291.482 21.026 291.309 20.956 291.169 20.816C291.029 20.676 290.959 20.508 290.959 20.312C290.959 20.116 291.029 19.9527 291.169 19.822C291.309 19.682 291.482 19.612 291.687 19.612C291.892 19.612 292.065 19.6773 292.205 19.808C292.345 19.9387 292.415 20.102 292.415 20.298C292.415 20.5033 292.345 20.676 292.205 20.816C292.074 20.956 291.902 21.026 291.687 21.026ZM297.267 30.07C296.576 30.07 296.044 29.8833 295.671 29.51C295.297 29.1367 295.111 28.6093 295.111 27.928V21.026H296.105V27.872C296.105 28.3013 296.212 28.6327 296.427 28.866C296.651 29.0993 296.968 29.216 297.379 29.216C297.817 29.216 298.181 29.09 298.471 28.838L298.821 29.552C298.625 29.7293 298.387 29.86 298.107 29.944C297.836 30.028 297.556 30.07 297.267 30.07ZM293.795 23.476V22.65H298.345V23.476H293.795ZM308.008 20.2H309.03V30H308.008V20.2ZM301.876 30H300.84V20.2H301.876V30ZM308.106 25.478H301.764V24.568H308.106V25.478ZM315.057 30.07C314.431 30.07 313.885 29.9533 313.419 29.72C312.952 29.4867 312.588 29.1367 312.327 28.67C312.075 28.2033 311.949 27.62 311.949 26.92V22.65H312.943V26.808C312.943 27.592 313.134 28.1847 313.517 28.586C313.909 28.978 314.455 29.174 315.155 29.174C315.668 29.174 316.111 29.0713 316.485 28.866C316.867 28.6513 317.157 28.3433 317.353 27.942C317.558 27.5407 317.661 27.06 317.661 26.5V22.65H318.655V30H317.703V27.984L317.857 28.348C317.623 28.8893 317.259 29.314 316.765 29.622C316.279 29.9207 315.71 30.07 315.057 30.07ZM325.219 30.07C324.575 30.07 323.996 29.9253 323.483 29.636C322.97 29.3373 322.564 28.908 322.265 28.348C321.966 27.788 321.817 27.1113 321.817 26.318C321.817 25.5153 321.966 24.8387 322.265 24.288C322.573 23.728 322.984 23.3033 323.497 23.014C324.01 22.7247 324.584 22.58 325.219 22.58C325.919 22.58 326.544 22.7387 327.095 23.056C327.655 23.364 328.094 23.798 328.411 24.358C328.728 24.918 328.887 25.5713 328.887 26.318C328.887 27.0553 328.728 27.7087 328.411 28.278C328.094 28.838 327.655 29.2767 327.095 29.594C326.544 29.9113 325.919 30.07 325.219 30.07ZM321.425 30V19.612H322.419V24.82L322.279 26.304L322.377 27.788V30H321.425ZM325.149 29.188C325.672 29.188 326.138 29.0713 326.549 28.838C326.96 28.5953 327.286 28.2593 327.529 27.83C327.772 27.3913 327.893 26.8873 327.893 26.318C327.893 25.7393 327.772 25.2353 327.529 24.806C327.286 24.3767 326.96 24.0453 326.549 23.812C326.138 23.5693 325.672 23.448 325.149 23.448C324.626 23.448 324.155 23.5693 323.735 23.812C323.324 24.0453 322.998 24.3767 322.755 24.806C322.522 25.2353 322.405 25.7393 322.405 26.318C322.405 26.8873 322.522 27.3913 322.755 27.83C322.998 28.2593 323.324 28.5953 323.735 28.838C324.155 29.0713 324.626 29.188 325.149 29.188Z" fill="#549387"/>
<path d="M436.8 62.39H440.5V63.03H436.8V62.39ZM436.88 66H436.14V59H440.94V59.64H436.88V66ZM442.318 66V60.75H443.028V66H442.318ZM442.678 59.59C442.531 59.59 442.408 59.54 442.308 59.44C442.208 59.34 442.158 59.22 442.158 59.08C442.158 58.94 442.208 58.8233 442.308 58.73C442.408 58.63 442.531 58.58 442.678 58.58C442.825 58.58 442.948 58.6267 443.048 58.72C443.148 58.8133 443.198 58.93 443.198 59.07C443.198 59.2167 443.148 59.34 443.048 59.44C442.955 59.54 442.831 59.59 442.678 59.59ZM447.244 67.99C446.764 67.99 446.304 67.92 445.864 67.78C445.424 67.64 445.067 67.44 444.794 67.18L445.154 66.64C445.4 66.86 445.704 67.0333 446.064 67.16C446.43 67.2933 446.817 67.36 447.224 67.36C447.89 67.36 448.38 67.2033 448.694 66.89C449.007 66.5833 449.164 66.1033 449.164 65.45V64.14L449.264 63.24L449.194 62.34V60.75H449.874V65.36C449.874 66.2667 449.65 66.93 449.204 67.35C448.764 67.7767 448.11 67.99 447.244 67.99ZM447.114 65.8C446.614 65.8 446.164 65.6933 445.764 65.48C445.364 65.26 445.047 64.9567 444.814 64.57C444.587 64.1833 444.474 63.74 444.474 63.24C444.474 62.74 444.587 62.3 444.814 61.92C445.047 61.5333 445.364 61.2333 445.764 61.02C446.164 60.8067 446.614 60.7 447.114 60.7C447.58 60.7 448 60.7967 448.374 60.99C448.747 61.1833 449.044 61.47 449.264 61.85C449.484 62.23 449.594 62.6933 449.594 63.24C449.594 63.7867 449.484 64.25 449.264 64.63C449.044 65.01 448.747 65.3 448.374 65.5C448 65.7 447.58 65.8 447.114 65.8ZM447.184 65.17C447.57 65.17 447.914 65.09 448.214 64.93C448.514 64.7633 448.75 64.5367 448.924 64.25C449.097 63.9567 449.184 63.62 449.184 63.24C449.184 62.86 449.097 62.5267 448.924 62.24C448.75 61.9533 448.514 61.73 448.214 61.57C447.914 61.4033 447.57 61.32 447.184 61.32C446.804 61.32 446.46 61.4033 446.154 61.57C445.854 61.73 445.617 61.9533 445.444 62.24C445.277 62.5267 445.194 62.86 445.194 63.24C445.194 63.62 445.277 63.9567 445.444 64.25C445.617 64.5367 445.854 64.7633 446.154 64.93C446.46 65.09 446.804 65.17 447.184 65.17ZM458.409 60.7C458.836 60.7 459.206 60.7833 459.519 60.95C459.839 61.11 460.086 61.3567 460.259 61.69C460.439 62.0233 460.529 62.4433 460.529 62.95V66H459.819V63.02C459.819 62.4667 459.686 62.05 459.419 61.77C459.159 61.4833 458.789 61.34 458.309 61.34C457.949 61.34 457.636 61.4167 457.369 61.57C457.109 61.7167 456.906 61.9333 456.759 62.22C456.619 62.5 456.549 62.84 456.549 63.24V66H455.839V63.02C455.839 62.4667 455.706 62.05 455.439 61.77C455.173 61.4833 454.799 61.34 454.319 61.34C453.966 61.34 453.656 61.4167 453.389 61.57C453.123 61.7167 452.916 61.9333 452.769 62.22C452.629 62.5 452.559 62.84 452.559 63.24V66H451.849V60.75H452.529V62.17L452.419 61.92C452.579 61.54 452.836 61.2433 453.189 61.03C453.549 60.81 453.973 60.7 454.459 60.7C454.973 60.7 455.409 60.83 455.769 61.09C456.129 61.3433 456.363 61.7267 456.469 62.24L456.189 62.13C456.343 61.7033 456.613 61.36 456.999 61.1C457.393 60.8333 457.863 60.7 458.409 60.7ZM465.745 66V64.84L465.715 64.65V62.71C465.715 62.2633 465.588 61.92 465.335 61.68C465.088 61.44 464.718 61.32 464.225 61.32C463.885 61.32 463.562 61.3767 463.255 61.49C462.948 61.6033 462.688 61.7533 462.475 61.94L462.155 61.41C462.422 61.1833 462.742 61.01 463.115 60.89C463.488 60.7633 463.882 60.7 464.295 60.7C464.975 60.7 465.498 60.87 465.865 61.21C466.238 61.5433 466.425 62.0533 466.425 62.74V66H465.745ZM463.935 66.05C463.542 66.05 463.198 65.9867 462.905 65.86C462.618 65.7267 462.398 65.5467 462.245 65.32C462.092 65.0867 462.015 64.82 462.015 64.52C462.015 64.2467 462.078 64 462.205 63.78C462.338 63.5533 462.552 63.3733 462.845 63.24C463.145 63.1 463.545 63.03 464.045 63.03H465.855V63.56H464.065C463.558 63.56 463.205 63.65 463.005 63.83C462.812 64.01 462.715 64.2333 462.715 64.5C462.715 64.8 462.832 65.04 463.065 65.22C463.298 65.4 463.625 65.49 464.045 65.49C464.445 65.49 464.788 65.4 465.075 65.22C465.368 65.0333 465.582 64.7667 465.715 64.42L465.875 64.91C465.742 65.2567 465.508 65.5333 465.175 65.74C464.848 65.9467 464.435 66.05 463.935 66.05Z" fill="#549387"/>
<path d="M500.024 26.096C499.395 26.096 498.803 25.9573 498.248 25.68C497.704 25.4027 497.267 25.008 496.936 24.496L497.624 23.696C497.933 24.144 498.291 24.4853 498.696 24.72C499.101 24.9547 499.549 25.072 500.04 25.072C501.427 25.072 502.12 24.2507 502.12 22.608V15.824H498.024V14.8H503.288V22.56C503.288 23.744 503.011 24.6293 502.456 25.216C501.912 25.8027 501.101 26.096 500.024 26.096ZM511.864 26V24.144L511.816 23.84V20.736C511.816 20.0213 511.613 19.472 511.208 19.088C510.813 18.704 510.221 18.512 509.432 18.512C508.888 18.512 508.37 18.6027 507.88 18.784C507.389 18.9653 506.973 19.2053 506.632 19.504L506.12 18.656C506.546 18.2933 507.058 18.016 507.656 17.824C508.253 17.6213 508.882 17.52 509.544 17.52C510.632 17.52 511.469 17.792 512.056 18.336C512.653 18.8693 512.952 19.6853 512.952 20.784V26H511.864ZM508.968 26.08C508.338 26.08 507.789 25.9787 507.32 25.776C506.861 25.5627 506.509 25.2747 506.264 24.912C506.018 24.5387 505.896 24.112 505.896 23.632C505.896 23.1947 505.997 22.8 506.2 22.448C506.413 22.0853 506.754 21.7973 507.224 21.584C507.704 21.36 508.344 21.248 509.144 21.248H512.04V22.096H509.176C508.365 22.096 507.8 22.24 507.48 22.528C507.17 22.816 507.016 23.1733 507.016 23.6C507.016 24.08 507.202 24.464 507.576 24.752C507.949 25.04 508.472 25.184 509.144 25.184C509.784 25.184 510.333 25.04 510.792 24.752C511.261 24.4533 511.602 24.0267 511.816 23.472L512.072 24.256C511.858 24.8107 511.485 25.2533 510.952 25.584C510.429 25.9147 509.768 26.08 508.968 26.08ZM518.041 26L514.313 17.6H515.497L518.921 25.392H518.361L521.833 17.6H522.953L519.209 26H518.041ZM529.567 26V24.144L529.519 23.84V20.736C529.519 20.0213 529.316 19.472 528.911 19.088C528.516 18.704 527.924 18.512 527.135 18.512C526.591 18.512 526.073 18.6027 525.583 18.784C525.092 18.9653 524.676 19.2053 524.335 19.504L523.823 18.656C524.249 18.2933 524.761 18.016 525.359 17.824C525.956 17.6213 526.585 17.52 527.247 17.52C528.335 17.52 529.172 17.792 529.759 18.336C530.356 18.8693 530.655 19.6853 530.655 20.784V26H529.567ZM526.671 26.08C526.041 26.08 525.492 25.9787 525.023 25.776C524.564 25.5627 524.212 25.2747 523.967 24.912C523.721 24.5387 523.599 24.112 523.599 23.632C523.599 23.1947 523.7 22.8 523.903 22.448C524.116 22.0853 524.457 21.7973 524.927 21.584C525.407 21.36 526.047 21.248 526.847 21.248H529.743V22.096H526.879C526.068 22.096 525.503 22.24 525.183 22.528C524.873 22.816 524.719 23.1733 524.719 23.6C524.719 24.08 524.905 24.464 525.279 24.752C525.652 25.04 526.175 25.184 526.847 25.184C527.487 25.184 528.036 25.04 528.495 24.752C528.964 24.4533 529.305 24.0267 529.519 23.472L529.775 24.256C529.561 24.8107 529.188 25.2533 528.655 25.584C528.132 25.9147 527.471 26.08 526.671 26.08ZM537.068 26.096C536.236 26.096 535.436 25.9627 534.668 25.696C533.911 25.4187 533.324 25.0667 532.908 24.64L533.372 23.728C533.767 24.112 534.295 24.4373 534.956 24.704C535.628 24.96 536.332 25.088 537.068 25.088C537.772 25.088 538.343 25.0027 538.78 24.832C539.228 24.6507 539.554 24.4107 539.756 24.112C539.97 23.8133 540.076 23.4827 540.076 23.12C540.076 22.6827 539.948 22.3307 539.692 22.064C539.447 21.7973 539.122 21.5893 538.716 21.44C538.311 21.28 537.863 21.1413 537.372 21.024C536.882 20.9067 536.391 20.784 535.9 20.656C535.41 20.5173 534.956 20.336 534.54 20.112C534.135 19.888 533.804 19.5947 533.548 19.232C533.303 18.8587 533.18 18.3733 533.18 17.776C533.18 17.2213 533.324 16.7147 533.612 16.256C533.911 15.7867 534.364 15.4133 534.972 15.136C535.58 14.848 536.359 14.704 537.308 14.704C537.938 14.704 538.562 14.7947 539.18 14.976C539.799 15.1467 540.332 15.3867 540.78 15.696L540.38 16.64C539.9 16.32 539.388 16.0853 538.844 15.936C538.311 15.7867 537.794 15.712 537.292 15.712C536.62 15.712 536.066 15.8027 535.628 15.984C535.191 16.1653 534.866 16.4107 534.652 16.72C534.45 17.0187 534.348 17.36 534.348 17.744C534.348 18.1813 534.471 18.5333 534.716 18.8C534.972 19.0667 535.303 19.2747 535.708 19.424C536.124 19.5733 536.578 19.7067 537.068 19.824C537.559 19.9413 538.044 20.0693 538.524 20.208C539.015 20.3467 539.463 20.528 539.868 20.752C540.284 20.9653 540.615 21.2533 540.86 21.616C541.116 21.9787 541.244 22.4533 541.244 23.04C541.244 23.584 541.095 24.0907 540.796 24.56C540.498 25.0187 540.039 25.392 539.42 25.68C538.812 25.9573 538.028 26.096 537.068 26.096ZM547.072 26.08C546.24 26.08 545.493 25.8987 544.832 25.536C544.181 25.1627 543.669 24.656 543.296 24.016C542.923 23.3653 542.736 22.624 542.736 21.792C542.736 20.9493 542.923 20.208 543.296 19.568C543.669 18.928 544.181 18.4267 544.832 18.064C545.493 17.7013 546.24 17.52 547.072 17.52C547.787 17.52 548.432 17.6587 549.008 17.936C549.584 18.2133 550.037 18.6293 550.368 19.184L549.52 19.76C549.232 19.3333 548.875 19.0187 548.448 18.816C548.021 18.6133 547.557 18.512 547.056 18.512C546.459 18.512 545.92 18.6507 545.44 18.928C544.96 19.1947 544.581 19.5733 544.304 20.064C544.027 20.5547 543.888 21.1307 543.888 21.792C543.888 22.4533 544.027 23.0293 544.304 23.52C544.581 24.0107 544.96 24.3947 545.44 24.672C545.92 24.9387 546.459 25.072 547.056 25.072C547.557 25.072 548.021 24.9707 548.448 24.768C548.875 24.5653 549.232 24.256 549.52 23.84L550.368 24.416C550.037 24.96 549.584 25.376 549.008 25.664C548.432 25.9413 547.787 26.08 547.072 26.08ZM552.6 26V17.6H553.688V19.888L553.576 19.488C553.81 18.848 554.205 18.3627 554.76 18.032C555.314 17.6907 556.002 17.52 556.824 17.52V18.624C556.781 18.624 556.738 18.624 556.696 18.624C556.653 18.6133 556.61 18.608 556.568 18.608C555.682 18.608 554.989 18.88 554.488 19.424C553.986 19.9573 553.736 20.72 553.736 21.712V26H552.6ZM558.897 26V17.6H560.033V26H558.897ZM559.473 15.744C559.238 15.744 559.041 15.664 558.881 15.504C558.721 15.344 558.641 15.152 558.641 14.928C558.641 14.704 558.721 14.5173 558.881 14.368C559.041 14.208 559.238 14.128 559.473 14.128C559.707 14.128 559.905 14.2027 560.065 14.352C560.225 14.5013 560.305 14.688 560.305 14.912C560.305 15.1467 560.225 15.344 560.065 15.504C559.915 15.664 559.718 15.744 559.473 15.744ZM567.529 26.08C566.804 26.08 566.148 25.9147 565.561 25.584C564.975 25.2427 564.505 24.7573 564.153 24.128C563.812 23.488 563.641 22.7093 563.641 21.792C563.641 20.8747 563.812 20.1013 564.153 19.472C564.495 18.832 564.959 18.3467 565.545 18.016C566.132 17.6853 566.793 17.52 567.529 17.52C568.329 17.52 569.044 17.7013 569.673 18.064C570.313 18.416 570.815 18.9173 571.177 19.568C571.54 20.208 571.721 20.9493 571.721 21.792C571.721 22.6453 571.54 23.392 571.177 24.032C570.815 24.672 570.313 25.1733 569.673 25.536C569.044 25.8987 568.329 26.08 567.529 26.08ZM563.193 29.104V17.6H564.281V20.128L564.169 21.808L564.329 23.504V29.104H563.193ZM567.449 25.072C568.047 25.072 568.58 24.9387 569.049 24.672C569.519 24.3947 569.892 24.0107 570.169 23.52C570.447 23.0187 570.585 22.4427 570.585 21.792C570.585 21.1413 570.447 20.5707 570.169 20.08C569.892 19.5893 569.519 19.2053 569.049 18.928C568.58 18.6507 568.047 18.512 567.449 18.512C566.852 18.512 566.313 18.6507 565.833 18.928C565.364 19.2053 564.991 19.5893 564.713 20.08C564.447 20.5707 564.313 21.1413 564.313 21.792C564.313 22.4427 564.447 23.0187 564.713 23.52C564.991 24.0107 565.364 24.3947 565.833 24.672C566.313 24.9387 566.852 25.072 567.449 25.072ZM576.693 26.08C575.904 26.08 575.296 25.8667 574.869 25.44C574.442 25.0133 574.229 24.4107 574.229 23.632V15.744H575.365V23.568C575.365 24.0587 575.488 24.4373 575.733 24.704C575.989 24.9707 576.352 25.104 576.821 25.104C577.322 25.104 577.738 24.96 578.069 24.672L578.469 25.488C578.245 25.6907 577.973 25.84 577.653 25.936C577.344 26.032 577.024 26.08 576.693 26.08ZM572.725 18.544V17.6H577.925V18.544H572.725Z" fill="#549387"/>
<path d="M634.28 73V59H639.52C640.707 59 641.727 59.1933 642.58 59.58C643.433 59.9533 644.087 60.5 644.54 61.22C645.007 61.9267 645.24 62.7867 645.24 63.8C645.24 64.7867 645.007 65.64 644.54 66.36C644.087 67.0667 643.433 67.6133 642.58 68C641.727 68.3733 640.707 68.56 639.52 68.56H635.1L635.76 67.88V73H634.28ZM643.84 73L640.24 67.92H641.84L645.46 73H643.84ZM635.76 68L635.1 67.3H639.48C640.88 67.3 641.94 66.9933 642.66 66.38C643.393 65.7667 643.76 64.9067 643.76 63.8C643.76 62.68 643.393 61.8133 642.66 61.2C641.94 60.5867 640.88 60.28 639.48 60.28H635.1L635.76 59.58V68ZM652.893 73.1C651.8 73.1 650.84 72.8733 650.013 72.42C649.186 71.9533 648.54 71.32 648.073 70.52C647.606 69.7067 647.373 68.78 647.373 67.74C647.373 66.7 647.593 65.78 648.033 64.98C648.486 64.18 649.1 63.5533 649.873 63.1C650.66 62.6333 651.54 62.4 652.513 62.4C653.5 62.4 654.373 62.6267 655.133 63.08C655.906 63.52 656.513 64.1467 656.953 64.96C657.393 65.76 657.613 66.6867 657.613 67.74C657.613 67.8067 657.606 67.88 657.593 67.96C657.593 68.0267 657.593 68.1 657.593 68.18H648.453V67.12H656.833L656.273 67.54C656.273 66.78 656.106 66.1067 655.773 65.52C655.453 64.92 655.013 64.4533 654.453 64.12C653.893 63.7867 653.246 63.62 652.513 63.62C651.793 63.62 651.146 63.7867 650.573 64.12C650 64.4533 649.553 64.92 649.233 65.52C648.913 66.12 648.753 66.8067 648.753 67.58V67.8C648.753 68.6 648.926 69.3067 649.273 69.92C649.633 70.52 650.126 70.9933 650.753 71.34C651.393 71.6733 652.12 71.84 652.933 71.84C653.573 71.84 654.166 71.7267 654.713 71.5C655.273 71.2733 655.753 70.9267 656.153 70.46L656.953 71.38C656.486 71.94 655.9 72.3667 655.193 72.66C654.5 72.9533 653.733 73.1 652.893 73.1ZM666.79 73V70.68L666.73 70.3V66.42C666.73 65.5267 666.477 64.84 665.97 64.36C665.477 63.88 664.737 63.64 663.75 63.64C663.07 63.64 662.424 63.7533 661.81 63.98C661.197 64.2067 660.677 64.5067 660.25 64.88L659.61 63.82C660.144 63.3667 660.784 63.02 661.53 62.78C662.277 62.5267 663.064 62.4 663.89 62.4C665.25 62.4 666.297 62.74 667.03 63.42C667.777 64.0867 668.15 65.1067 668.15 66.48V73H666.79ZM663.17 73.1C662.384 73.1 661.697 72.9733 661.11 72.72C660.537 72.4533 660.097 72.0933 659.79 71.64C659.484 71.1733 659.33 70.64 659.33 70.04C659.33 69.4933 659.457 69 659.71 68.56C659.977 68.1067 660.404 67.7467 660.99 67.48C661.59 67.2 662.39 67.06 663.39 67.06H667.01V68.12H663.43C662.417 68.12 661.71 68.3 661.31 68.66C660.924 69.02 660.73 69.4667 660.73 70C660.73 70.6 660.964 71.08 661.43 71.44C661.897 71.8 662.55 71.98 663.39 71.98C664.19 71.98 664.877 71.8 665.45 71.44C666.037 71.0667 666.464 70.5333 666.73 69.84L667.05 70.82C666.784 71.5133 666.317 72.0667 665.65 72.48C664.997 72.8933 664.17 73.1 663.17 73.1ZM676.367 73.1C675.327 73.1 674.394 72.8733 673.567 72.42C672.754 71.9533 672.114 71.32 671.647 70.52C671.181 69.7067 670.947 68.78 670.947 67.74C670.947 66.6867 671.181 65.76 671.647 64.96C672.114 64.16 672.754 63.5333 673.567 63.08C674.394 62.6267 675.327 62.4 676.367 62.4C677.261 62.4 678.067 62.5733 678.787 62.92C679.507 63.2667 680.074 63.7867 680.487 64.48L679.427 65.2C679.067 64.6667 678.621 64.2733 678.087 64.02C677.554 63.7667 676.974 63.64 676.347 63.64C675.601 63.64 674.927 63.8133 674.327 64.16C673.727 64.4933 673.254 64.9667 672.907 65.58C672.561 66.1933 672.387 66.9133 672.387 67.74C672.387 68.5667 672.561 69.2867 672.907 69.9C673.254 70.5133 673.727 70.9933 674.327 71.34C674.927 71.6733 675.601 71.84 676.347 71.84C676.974 71.84 677.554 71.7133 678.087 71.46C678.621 71.2067 679.067 70.82 679.427 70.3L680.487 71.02C680.074 71.7 679.507 72.22 678.787 72.58C678.067 72.9267 677.261 73.1 676.367 73.1ZM686.714 73.1C685.727 73.1 684.967 72.8333 684.434 72.3C683.901 71.7667 683.634 71.0133 683.634 70.04V60.18H685.054V69.96C685.054 70.5733 685.207 71.0467 685.514 71.38C685.834 71.7133 686.287 71.88 686.874 71.88C687.501 71.88 688.021 71.7 688.434 71.34L688.934 72.36C688.654 72.6133 688.314 72.8 687.914 72.92C687.527 73.04 687.127 73.1 686.714 73.1ZM681.754 63.68V62.5H688.254V63.68H681.754Z" fill="#549387"/>
<path d="M520.824 124V112.8H521.8L529.528 122.528H529.016V112.8H530.184V124H529.208L521.496 114.272H522.008V124H520.824ZM537.024 124.08C536.213 124.08 535.482 123.899 534.832 123.536C534.192 123.163 533.685 122.656 533.312 122.016C532.938 121.365 532.752 120.624 532.752 119.792C532.752 118.949 532.938 118.208 533.312 117.568C533.685 116.928 534.192 116.427 534.832 116.064C535.472 115.701 536.202 115.52 537.024 115.52C537.856 115.52 538.592 115.701 539.232 116.064C539.882 116.427 540.389 116.928 540.752 117.568C541.125 118.208 541.312 118.949 541.312 119.792C541.312 120.624 541.125 121.365 540.752 122.016C540.389 122.656 539.882 123.163 539.232 123.536C538.581 123.899 537.845 124.08 537.024 124.08ZM537.024 123.072C537.632 123.072 538.17 122.939 538.64 122.672C539.109 122.395 539.477 122.011 539.744 121.52C540.021 121.019 540.16 120.443 540.16 119.792C540.16 119.131 540.021 118.555 539.744 118.064C539.477 117.573 539.109 117.195 538.64 116.928C538.17 116.651 537.637 116.512 537.04 116.512C536.442 116.512 535.909 116.651 535.44 116.928C534.97 117.195 534.597 117.573 534.32 118.064C534.042 118.555 533.904 119.131 533.904 119.792C533.904 120.443 534.042 121.019 534.32 121.52C534.597 122.011 534.97 122.395 535.44 122.672C535.909 122.939 536.437 123.072 537.024 123.072ZM546.975 124.08C546.175 124.08 545.455 123.899 544.815 123.536C544.186 123.173 543.69 122.672 543.327 122.032C542.964 121.381 542.783 120.635 542.783 119.792C542.783 118.939 542.964 118.192 543.327 117.552C543.69 116.912 544.186 116.416 544.815 116.064C545.455 115.701 546.175 115.52 546.975 115.52C547.711 115.52 548.367 115.685 548.943 116.016C549.53 116.347 549.994 116.832 550.335 117.472C550.687 118.101 550.863 118.875 550.863 119.792C550.863 120.699 550.692 121.472 550.351 122.112C550.01 122.752 549.546 123.243 548.959 123.584C548.383 123.915 547.722 124.08 546.975 124.08ZM547.055 123.072C547.652 123.072 548.186 122.939 548.655 122.672C549.135 122.395 549.508 122.011 549.775 121.52C550.052 121.019 550.191 120.443 550.191 119.792C550.191 119.131 550.052 118.555 549.775 118.064C549.508 117.573 549.135 117.195 548.655 116.928C548.186 116.651 547.652 116.512 547.055 116.512C546.468 116.512 545.94 116.651 545.471 116.928C545.002 117.195 544.628 117.573 544.351 118.064C544.074 118.555 543.935 119.131 543.935 119.792C543.935 120.443 544.074 121.019 544.351 121.52C544.628 122.011 545.002 122.395 545.471 122.672C545.94 122.939 546.468 123.072 547.055 123.072ZM550.223 124V121.472L550.335 119.776L550.175 118.08V112.128H551.311V124H550.223ZM558.043 124.08C557.168 124.08 556.4 123.899 555.739 123.536C555.077 123.163 554.56 122.656 554.187 122.016C553.813 121.365 553.627 120.624 553.627 119.792C553.627 118.96 553.803 118.224 554.155 117.584C554.517 116.944 555.008 116.443 555.627 116.08C556.256 115.707 556.96 115.52 557.739 115.52C558.528 115.52 559.227 115.701 559.835 116.064C560.453 116.416 560.939 116.917 561.291 117.568C561.643 118.208 561.819 118.949 561.819 119.792C561.819 119.845 561.813 119.904 561.803 119.968C561.803 120.021 561.803 120.08 561.803 120.144H554.491V119.296H561.195L560.747 119.632C560.747 119.024 560.613 118.485 560.347 118.016C560.091 117.536 559.739 117.163 559.291 116.896C558.843 116.629 558.325 116.496 557.739 116.496C557.163 116.496 556.645 116.629 556.187 116.896C555.728 117.163 555.371 117.536 555.115 118.016C554.859 118.496 554.731 119.045 554.731 119.664V119.84C554.731 120.48 554.869 121.045 555.147 121.536C555.435 122.016 555.829 122.395 556.331 122.672C556.843 122.939 557.424 123.072 558.075 123.072C558.587 123.072 559.061 122.981 559.499 122.8C559.947 122.619 560.331 122.341 560.651 121.968L561.291 122.704C560.917 123.152 560.448 123.493 559.883 123.728C559.328 123.963 558.715 124.08 558.043 124.08ZM564.243 124.08C564.008 124.08 563.806 123.995 563.635 123.824C563.475 123.653 563.395 123.445 563.395 123.2C563.395 122.944 563.475 122.736 563.635 122.576C563.806 122.416 564.008 122.336 564.243 122.336C564.478 122.336 564.675 122.416 564.835 122.576C565.006 122.736 565.091 122.944 565.091 123.2C565.091 123.445 565.006 123.653 564.835 123.824C564.675 123.995 564.478 124.08 564.243 124.08ZM566.43 127.184C566.088 127.184 565.763 127.136 565.454 127.04C565.134 126.955 564.867 126.821 564.654 126.64L565.054 125.776C565.395 126.064 565.832 126.208 566.366 126.208C566.814 126.208 567.155 126.075 567.39 125.808C567.635 125.541 567.758 125.147 567.758 124.624V115.6H568.894V124.624C568.894 125.403 568.68 126.021 568.254 126.48C567.838 126.949 567.23 127.184 566.43 127.184ZM568.334 113.744C568.099 113.744 567.902 113.664 567.742 113.504C567.582 113.344 567.502 113.152 567.502 112.928C567.502 112.704 567.582 112.517 567.742 112.368C567.902 112.208 568.099 112.128 568.334 112.128C568.568 112.128 568.766 112.203 568.926 112.352C569.086 112.501 569.166 112.688 569.166 112.912C569.166 113.147 569.086 113.344 568.926 113.504C568.776 113.664 568.579 113.744 568.334 113.744ZM574.324 124.08C573.631 124.08 572.975 123.984 572.356 123.792C571.738 123.589 571.252 123.339 570.9 123.04L571.412 122.144C571.754 122.4 572.191 122.624 572.724 122.816C573.258 122.997 573.818 123.088 574.404 123.088C575.204 123.088 575.78 122.965 576.132 122.72C576.484 122.464 576.66 122.128 576.66 121.712C576.66 121.403 576.559 121.163 576.356 120.992C576.164 120.811 575.908 120.677 575.588 120.592C575.268 120.496 574.911 120.416 574.516 120.352C574.122 120.288 573.727 120.213 573.332 120.128C572.948 120.043 572.596 119.92 572.276 119.76C571.956 119.589 571.695 119.36 571.492 119.072C571.3 118.784 571.204 118.4 571.204 117.92C571.204 117.461 571.332 117.051 571.588 116.688C571.844 116.325 572.218 116.043 572.708 115.84C573.21 115.627 573.818 115.52 574.532 115.52C575.076 115.52 575.62 115.595 576.164 115.744C576.708 115.883 577.156 116.069 577.508 116.304L577.012 117.216C576.639 116.96 576.239 116.779 575.812 116.672C575.386 116.555 574.959 116.496 574.532 116.496C573.775 116.496 573.215 116.629 572.852 116.896C572.5 117.152 572.324 117.483 572.324 117.888C572.324 118.208 572.42 118.459 572.612 118.64C572.815 118.821 573.076 118.965 573.396 119.072C573.727 119.168 574.084 119.248 574.468 119.312C574.863 119.376 575.252 119.456 575.636 119.552C576.031 119.637 576.388 119.76 576.708 119.92C577.039 120.069 577.3 120.288 577.492 120.576C577.695 120.853 577.796 121.221 577.796 121.68C577.796 122.171 577.658 122.597 577.38 122.96C577.114 123.312 576.719 123.589 576.196 123.792C575.684 123.984 575.06 124.08 574.324 124.08Z" fill="#549387"/>
<path d="M172.764 139.2H173.786V149H172.764V139.2ZM166.632 149H165.596V139.2H166.632V149ZM172.862 144.478H166.52V143.568H172.862V144.478ZM178.889 149V140.096H175.445V139.2H183.369V140.096H179.925V149H178.889ZM185.024 149V139.2H185.878L190.358 146.844H189.91L194.348 139.2H195.202V149H194.208V140.754H194.446L190.358 147.754H189.868L185.752 140.754H186.018V149H185.024ZM198.395 149V139.2H199.431V148.104H204.919V149H198.395ZM208.865 149.084C208.165 149.084 207.498 148.972 206.863 148.748C206.228 148.515 205.724 148.207 205.351 147.824L205.841 147.026C206.149 147.353 206.569 147.623 207.101 147.838C207.642 148.053 208.226 148.16 208.851 148.16C209.682 148.16 210.312 147.978 210.741 147.614C211.18 147.241 211.399 146.755 211.399 146.158C211.399 145.738 211.296 145.379 211.091 145.08C210.895 144.772 210.559 144.534 210.083 144.366C209.607 144.198 208.954 144.114 208.123 144.114H206.037L206.541 139.2H211.903V140.096H206.947L207.465 139.606L207.031 143.722L206.513 143.218H208.347C209.336 143.218 210.13 143.339 210.727 143.582C211.324 143.825 211.754 144.165 212.015 144.604C212.286 145.033 212.421 145.537 212.421 146.116C212.421 146.667 212.29 147.171 212.029 147.628C211.768 148.076 211.376 148.431 210.853 148.692C210.33 148.953 209.668 149.084 208.865 149.084Z" fill="#549387"/>
<path d="M321.36 109.12C320.307 109.12 319.333 108.947 318.44 108.6C317.547 108.24 316.773 107.74 316.12 107.1C315.467 106.46 314.953 105.707 314.58 104.84C314.22 103.973 314.04 103.027 314.04 102C314.04 100.973 314.22 100.027 314.58 99.16C314.953 98.2933 315.467 97.54 316.12 96.9C316.787 96.26 317.567 95.7667 318.46 95.42C319.353 95.06 320.327 94.88 321.38 94.88C322.393 94.88 323.347 95.0533 324.24 95.4C325.133 95.7333 325.887 96.24 326.5 96.92L325.56 97.86C324.987 97.2733 324.353 96.8533 323.66 96.6C322.967 96.3333 322.22 96.2 321.42 96.2C320.58 96.2 319.8 96.3467 319.08 96.64C318.36 96.92 317.733 97.3267 317.2 97.86C316.667 98.38 316.247 98.9933 315.94 99.7C315.647 100.393 315.5 101.16 315.5 102C315.5 102.84 315.647 103.613 315.94 104.32C316.247 105.013 316.667 105.627 317.2 106.16C317.733 106.68 318.36 107.087 319.08 107.38C319.8 107.66 320.58 107.8 321.42 107.8C322.22 107.8 322.967 107.667 323.66 107.4C324.353 107.133 324.987 106.707 325.56 106.12L326.5 107.06C325.887 107.74 325.133 108.253 324.24 108.6C323.347 108.947 322.387 109.12 321.36 109.12ZM333.476 109.12C332.436 109.12 331.436 108.953 330.476 108.62C329.529 108.273 328.796 107.833 328.276 107.3L328.856 106.16C329.349 106.64 330.009 107.047 330.836 107.38C331.676 107.7 332.556 107.86 333.476 107.86C334.356 107.86 335.069 107.753 335.616 107.54C336.176 107.313 336.583 107.013 336.836 106.64C337.103 106.267 337.236 105.853 337.236 105.4C337.236 104.853 337.076 104.413 336.756 104.08C336.449 103.747 336.043 103.487 335.536 103.3C335.029 103.1 334.469 102.927 333.856 102.78C333.243 102.633 332.629 102.48 332.016 102.32C331.403 102.147 330.836 101.92 330.316 101.64C329.809 101.36 329.396 100.993 329.076 100.54C328.769 100.073 328.616 99.4667 328.616 98.72C328.616 98.0267 328.796 97.3933 329.156 96.82C329.529 96.2333 330.096 95.7667 330.856 95.42C331.616 95.06 332.589 94.88 333.776 94.88C334.563 94.88 335.343 94.9933 336.116 95.22C336.889 95.4333 337.556 95.7333 338.116 96.12L337.616 97.3C337.016 96.9 336.376 96.6067 335.696 96.42C335.029 96.2333 334.383 96.14 333.756 96.14C332.916 96.14 332.223 96.2533 331.676 96.48C331.129 96.7067 330.723 97.0133 330.456 97.4C330.203 97.7733 330.076 98.2 330.076 98.68C330.076 99.2267 330.229 99.6667 330.536 100C330.856 100.333 331.269 100.593 331.776 100.78C332.296 100.967 332.863 101.133 333.476 101.28C334.089 101.427 334.696 101.587 335.296 101.76C335.909 101.933 336.469 102.16 336.976 102.44C337.496 102.707 337.909 103.067 338.216 103.52C338.536 103.973 338.696 104.567 338.696 105.3C338.696 105.98 338.509 106.613 338.136 107.2C337.763 107.773 337.189 108.24 336.416 108.6C335.656 108.947 334.676 109.12 333.476 109.12ZM345.781 109.12C344.741 109.12 343.741 108.953 342.781 108.62C341.834 108.273 341.101 107.833 340.581 107.3L341.161 106.16C341.654 106.64 342.314 107.047 343.141 107.38C343.981 107.7 344.861 107.86 345.781 107.86C346.661 107.86 347.374 107.753 347.921 107.54C348.481 107.313 348.887 107.013 349.141 106.64C349.407 106.267 349.541 105.853 349.541 105.4C349.541 104.853 349.381 104.413 349.061 104.08C348.754 103.747 348.347 103.487 347.841 103.3C347.334 103.1 346.774 102.927 346.161 102.78C345.547 102.633 344.934 102.48 344.321 102.32C343.707 102.147 343.141 101.92 342.621 101.64C342.114 101.36 341.701 100.993 341.381 100.54C341.074 100.073 340.921 99.4667 340.921 98.72C340.921 98.0267 341.101 97.3933 341.461 96.82C341.834 96.2333 342.401 95.7667 343.161 95.42C343.921 95.06 344.894 94.88 346.081 94.88C346.867 94.88 347.647 94.9933 348.421 95.22C349.194 95.4333 349.861 95.7333 350.421 96.12L349.921 97.3C349.321 96.9 348.681 96.6067 348.001 96.42C347.334 96.2333 346.687 96.14 346.061 96.14C345.221 96.14 344.527 96.2533 343.981 96.48C343.434 96.7067 343.027 97.0133 342.761 97.4C342.507 97.7733 342.381 98.2 342.381 98.68C342.381 99.2267 342.534 99.6667 342.841 100C343.161 100.333 343.574 100.593 344.081 100.78C344.601 100.967 345.167 101.133 345.781 101.28C346.394 101.427 347.001 101.587 347.601 101.76C348.214 101.933 348.774 102.16 349.281 102.44C349.801 102.707 350.214 103.067 350.521 103.52C350.841 103.973 351.001 104.567 351.001 105.3C351.001 105.98 350.814 106.613 350.441 107.2C350.067 107.773 349.494 108.24 348.721 108.6C347.961 108.947 346.981 109.12 345.781 109.12ZM357.009 109.12C355.996 109.12 355.036 108.96 354.129 108.64C353.236 108.307 352.516 107.867 351.969 107.32L352.669 106.18C353.122 106.647 353.729 107.033 354.489 107.34C355.262 107.647 356.102 107.8 357.009 107.8C358.169 107.8 359.056 107.547 359.669 107.04C360.296 106.533 360.609 105.853 360.609 105C360.609 104.147 360.302 103.467 359.689 102.96C359.089 102.453 358.136 102.2 356.829 102.2H355.829V101.14L360.149 95.72L360.349 96.28H352.549V95H361.549V96.02L357.229 101.44L356.529 100.98H357.069C358.749 100.98 360.002 101.353 360.829 102.1C361.669 102.847 362.089 103.807 362.089 104.98C362.089 105.767 361.902 106.473 361.529 107.1C361.156 107.727 360.589 108.22 359.829 108.58C359.082 108.94 358.142 109.12 357.009 109.12Z" fill="#549387"/>
<path d="M709.756 136L706.036 127.6H706.996L710.476 135.508H709.948L713.452 127.6H714.352L710.632 136H709.756ZM716.579 136.06C716.059 136.06 715.567 135.988 715.103 135.844C714.639 135.692 714.275 135.504 714.011 135.28L714.395 134.608C714.651 134.8 714.979 134.968 715.379 135.112C715.779 135.248 716.199 135.316 716.639 135.316C717.239 135.316 717.671 135.224 717.935 135.04C718.199 134.848 718.331 134.596 718.331 134.284C718.331 134.052 718.255 133.872 718.103 133.744C717.959 133.608 717.767 133.508 717.527 133.444C717.287 133.372 717.019 133.312 716.723 133.264C716.427 133.216 716.131 133.16 715.835 133.096C715.547 133.032 715.283 132.94 715.043 132.82C714.803 132.692 714.607 132.52 714.455 132.304C714.311 132.088 714.239 131.8 714.239 131.44C714.239 131.096 714.335 130.788 714.527 130.516C714.719 130.244 714.999 130.032 715.367 129.88C715.743 129.72 716.199 129.64 716.735 129.64C717.143 129.64 717.551 129.696 717.959 129.808C718.367 129.912 718.703 130.052 718.967 130.228L718.595 130.912C718.315 130.72 718.015 130.584 717.695 130.504C717.375 130.416 717.055 130.372 716.735 130.372C716.167 130.372 715.747 130.472 715.475 130.672C715.211 130.864 715.079 131.112 715.079 131.416C715.079 131.656 715.151 131.844 715.295 131.98C715.447 132.116 715.643 132.224 715.883 132.304C716.131 132.376 716.399 132.436 716.687 132.484C716.983 132.532 717.275 132.592 717.563 132.664C717.859 132.728 718.127 132.82 718.367 132.94C718.615 133.052 718.811 133.216 718.955 133.432C719.107 133.64 719.183 133.916 719.183 134.26C719.183 134.628 719.079 134.948 718.871 135.22C718.671 135.484 718.375 135.692 717.983 135.844C717.599 135.988 717.131 136.06 716.579 136.06ZM724.575 136.072C723.943 136.072 723.359 135.968 722.823 135.76C722.287 135.544 721.823 135.244 721.431 134.86C721.039 134.476 720.731 134.024 720.507 133.504C720.291 132.984 720.183 132.416 720.183 131.8C720.183 131.184 720.291 130.616 720.507 130.096C720.731 129.576 721.039 129.124 721.431 128.74C721.831 128.356 722.299 128.06 722.835 127.852C723.371 127.636 723.955 127.528 724.587 127.528C725.195 127.528 725.767 127.632 726.303 127.84C726.839 128.04 727.291 128.344 727.659 128.752L727.095 129.316C726.751 128.964 726.371 128.712 725.955 128.56C725.539 128.4 725.091 128.32 724.611 128.32C724.107 128.32 723.639 128.408 723.207 128.584C722.775 128.752 722.399 128.996 722.079 129.316C721.759 129.628 721.507 129.996 721.323 130.42C721.147 130.836 721.059 131.296 721.059 131.8C721.059 132.304 721.147 132.768 721.323 133.192C721.507 133.608 721.759 133.976 722.079 134.296C722.399 134.608 722.775 134.852 723.207 135.028C723.639 135.196 724.107 135.28 724.611 135.28C725.091 135.28 725.539 135.2 725.955 135.04C726.371 134.88 726.751 134.624 727.095 134.272L727.659 134.836C727.291 135.244 726.839 135.552 726.303 135.76C725.767 135.968 725.191 136.072 724.575 136.072ZM731.658 136.06C731.05 136.06 730.502 135.924 730.014 135.652C729.534 135.372 729.154 134.992 728.874 134.512C728.594 134.024 728.454 133.468 728.454 132.844C728.454 132.212 728.594 131.656 728.874 131.176C729.154 130.696 729.534 130.32 730.014 130.048C730.494 129.776 731.042 129.64 731.658 129.64C732.282 129.64 732.834 129.776 733.314 130.048C733.802 130.32 734.182 130.696 734.454 131.176C734.734 131.656 734.874 132.212 734.874 132.844C734.874 133.468 734.734 134.024 734.454 134.512C734.182 134.992 733.802 135.372 733.314 135.652C732.826 135.924 732.274 136.06 731.658 136.06ZM731.658 135.304C732.114 135.304 732.518 135.204 732.87 135.004C733.222 134.796 733.498 134.508 733.698 134.14C733.906 133.764 734.01 133.332 734.01 132.844C734.01 132.348 733.906 131.916 733.698 131.548C733.498 131.18 733.222 130.896 732.87 130.696C732.518 130.488 732.118 130.384 731.67 130.384C731.222 130.384 730.822 130.488 730.47 130.696C730.118 130.896 729.838 131.18 729.63 131.548C729.422 131.916 729.318 132.348 729.318 132.844C729.318 133.332 729.422 133.764 729.63 134.14C729.838 134.508 730.118 134.796 730.47 135.004C730.822 135.204 731.218 135.304 731.658 135.304ZM739.122 136.06C738.522 136.06 737.982 135.924 737.502 135.652C737.03 135.38 736.658 135.004 736.386 134.524C736.114 134.036 735.978 133.476 735.978 132.844C735.978 132.204 736.114 131.644 736.386 131.164C736.658 130.684 737.03 130.312 737.502 130.048C737.982 129.776 738.522 129.64 739.122 129.64C739.674 129.64 740.166 129.764 740.598 130.012C741.038 130.26 741.386 130.624 741.642 131.104C741.906 131.576 742.038 132.156 742.038 132.844C742.038 133.524 741.91 134.104 741.654 134.584C741.398 135.064 741.05 135.432 740.61 135.688C740.178 135.936 739.682 136.06 739.122 136.06ZM739.182 135.304C739.63 135.304 740.03 135.204 740.382 135.004C740.742 134.796 741.022 134.508 741.222 134.14C741.43 133.764 741.534 133.332 741.534 132.844C741.534 132.348 741.43 131.916 741.222 131.548C741.022 131.18 740.742 130.896 740.382 130.696C740.03 130.488 739.63 130.384 739.182 130.384C738.742 130.384 738.346 130.488 737.994 130.696C737.642 130.896 737.362 131.18 737.154 131.548C736.946 131.916 736.842 132.348 736.842 132.844C736.842 133.332 736.946 133.764 737.154 134.14C737.362 134.508 737.642 134.796 737.994 135.004C738.346 135.204 738.742 135.304 739.182 135.304ZM741.558 136V134.104L741.642 132.832L741.522 131.56V127.096H742.374V136H741.558ZM747.423 136.06C746.767 136.06 746.191 135.924 745.695 135.652C745.199 135.372 744.811 134.992 744.531 134.512C744.251 134.024 744.111 133.468 744.111 132.844C744.111 132.22 744.243 131.668 744.507 131.188C744.779 130.708 745.147 130.332 745.611 130.06C746.083 129.78 746.611 129.64 747.195 129.64C747.787 129.64 748.311 129.776 748.767 130.048C749.231 130.312 749.595 130.688 749.859 131.176C750.123 131.656 750.255 132.212 750.255 132.844C750.255 132.884 750.251 132.928 750.243 132.976C750.243 133.016 750.243 133.06 750.243 133.108H744.759V132.472H749.787L749.451 132.724C749.451 132.268 749.351 131.864 749.151 131.512C748.959 131.152 748.695 130.872 748.359 130.672C748.023 130.472 747.635 130.372 747.195 130.372C746.763 130.372 746.375 130.472 746.031 130.672C745.687 130.872 745.419 131.152 745.227 131.512C745.035 131.872 744.939 132.284 744.939 132.748V132.88C744.939 133.36 745.043 133.784 745.251 134.152C745.467 134.512 745.763 134.796 746.139 135.004C746.523 135.204 746.959 135.304 747.447 135.304C747.831 135.304 748.187 135.236 748.515 135.1C748.851 134.964 749.139 134.756 749.379 134.476L749.859 135.028C749.579 135.364 749.227 135.62 748.803 135.796C748.387 135.972 747.927 136.06 747.423 136.06Z" fill="#549387"/>
<path d="M10.8 120.39H14.5V121.03H10.8V120.39ZM10.88 124H10.14V117H14.94V117.64H10.88V124ZM16.2205 124V118.75H16.9005V120.18L16.8305 119.93C16.9771 119.53 17.2238 119.227 17.5705 119.02C17.9171 118.807 18.3471 118.7 18.8605 118.7V119.39C18.8338 119.39 18.8071 119.39 18.7805 119.39C18.7538 119.383 18.7271 119.38 18.7005 119.38C18.1471 119.38 17.7138 119.55 17.4005 119.89C17.0871 120.223 16.9305 120.7 16.9305 121.32V124H16.2205ZM22.2472 124.05C21.7405 124.05 21.2839 123.937 20.8772 123.71C20.4772 123.477 20.1605 123.16 19.9272 122.76C19.6939 122.353 19.5772 121.89 19.5772 121.37C19.5772 120.843 19.6939 120.38 19.9272 119.98C20.1605 119.58 20.4772 119.267 20.8772 119.04C21.2772 118.813 21.7339 118.7 22.2472 118.7C22.7672 118.7 23.2272 118.813 23.6272 119.04C24.0339 119.267 24.3505 119.58 24.5772 119.98C24.8105 120.38 24.9272 120.843 24.9272 121.37C24.9272 121.89 24.8105 122.353 24.5772 122.76C24.3505 123.16 24.0339 123.477 23.6272 123.71C23.2205 123.937 22.7605 124.05 22.2472 124.05ZM22.2472 123.42C22.6272 123.42 22.9639 123.337 23.2572 123.17C23.5505 122.997 23.7805 122.757 23.9472 122.45C24.1205 122.137 24.2072 121.777 24.2072 121.37C24.2072 120.957 24.1205 120.597 23.9472 120.29C23.7805 119.983 23.5505 119.747 23.2572 119.58C22.9639 119.407 22.6305 119.32 22.2572 119.32C21.8839 119.32 21.5505 119.407 21.2572 119.58C20.9639 119.747 20.7305 119.983 20.5572 120.29C20.3839 120.597 20.2972 120.957 20.2972 121.37C20.2972 121.777 20.3839 122.137 20.5572 122.45C20.7305 122.757 20.9639 122.997 21.2572 123.17C21.5505 123.337 21.8805 123.42 22.2472 123.42ZM29.0567 118.7C29.4834 118.7 29.8567 118.783 30.1767 118.95C30.5034 119.11 30.7567 119.357 30.9367 119.69C31.1234 120.023 31.2167 120.443 31.2167 120.95V124H30.5067V121.02C30.5067 120.467 30.3667 120.05 30.0867 119.77C29.8134 119.483 29.4267 119.34 28.9267 119.34C28.5534 119.34 28.2267 119.417 27.9467 119.57C27.6734 119.717 27.4601 119.933 27.3067 120.22C27.1601 120.5 27.0867 120.84 27.0867 121.24V124H26.3767V118.75H27.0567V120.19L26.9467 119.92C27.1134 119.54 27.3801 119.243 27.7467 119.03C28.1134 118.81 28.5501 118.7 29.0567 118.7ZM34.7945 124.05C34.3012 124.05 33.9212 123.917 33.6545 123.65C33.3879 123.383 33.2545 123.007 33.2545 122.52V117.59H33.9645V122.48C33.9645 122.787 34.0412 123.023 34.1945 123.19C34.3545 123.357 34.5812 123.44 34.8745 123.44C35.1879 123.44 35.4479 123.35 35.6545 123.17L35.9045 123.68C35.7645 123.807 35.5945 123.9 35.3945 123.96C35.2012 124.02 35.0012 124.05 34.7945 124.05ZM32.3145 119.34V118.75H35.5645V119.34H32.3145ZM40.6242 120.13H44.3242V120.76H40.6242V120.13ZM40.7042 123.36H44.9142V124H39.9642V117H44.7642V117.64H40.7042V123.36ZM49.1837 118.7C49.6103 118.7 49.9837 118.783 50.3037 118.95C50.6303 119.11 50.8837 119.357 51.0637 119.69C51.2503 120.023 51.3437 120.443 51.3437 120.95V124H50.6337V121.02C50.6337 120.467 50.4937 120.05 50.2137 119.77C49.9403 119.483 49.5537 119.34 49.0537 119.34C48.6803 119.34 48.3537 119.417 48.0737 119.57C47.8003 119.717 47.587 119.933 47.4337 120.22C47.287 120.5 47.2137 120.84 47.2137 121.24V124H46.5037V118.75H47.1837V120.19L47.0737 119.92C47.2403 119.54 47.507 119.243 47.8737 119.03C48.2403 118.81 48.677 118.7 49.1837 118.7ZM55.3515 124.05C54.8515 124.05 54.4015 123.937 54.0015 123.71C53.6082 123.483 53.2982 123.17 53.0715 122.77C52.8448 122.363 52.7315 121.897 52.7315 121.37C52.7315 120.837 52.8448 120.37 53.0715 119.97C53.2982 119.57 53.6082 119.26 54.0015 119.04C54.4015 118.813 54.8515 118.7 55.3515 118.7C55.8115 118.7 56.2215 118.803 56.5815 119.01C56.9482 119.217 57.2382 119.52 57.4515 119.92C57.6715 120.313 57.7815 120.797 57.7815 121.37C57.7815 121.937 57.6748 122.42 57.4615 122.82C57.2482 123.22 56.9582 123.527 56.5915 123.74C56.2315 123.947 55.8182 124.05 55.3515 124.05ZM55.4015 123.42C55.7748 123.42 56.1082 123.337 56.4015 123.17C56.7015 122.997 56.9348 122.757 57.1015 122.45C57.2748 122.137 57.3615 121.777 57.3615 121.37C57.3615 120.957 57.2748 120.597 57.1015 120.29C56.9348 119.983 56.7015 119.747 56.4015 119.58C56.1082 119.407 55.7748 119.32 55.4015 119.32C55.0348 119.32 54.7048 119.407 54.4115 119.58C54.1182 119.747 53.8848 119.983 53.7115 120.29C53.5382 120.597 53.4515 120.957 53.4515 121.37C53.4515 121.777 53.5382 122.137 53.7115 122.45C53.8848 122.757 54.1182 122.997 54.4115 123.17C54.7048 123.337 55.0348 123.42 55.4015 123.42ZM57.3815 124V122.42L57.4515 121.36L57.3515 120.3V116.58H58.0615V124H57.3815Z" fill="#549387"/>
<path d="M0.14 26V19H0.75L3.95 24.46H3.63L6.8 19H7.41V26H6.7V20.11H6.87L3.95 25.11H3.6L0.66 20.11H0.85V26H0.14ZM11.6808 26.05C11.1741 26.05 10.7174 25.9367 10.3108 25.71C9.91078 25.4767 9.59411 25.16 9.36078 24.76C9.12745 24.3533 9.01078 23.89 9.01078 23.37C9.01078 22.8433 9.12745 22.38 9.36078 21.98C9.59411 21.58 9.91078 21.2667 10.3108 21.04C10.7108 20.8133 11.1674 20.7 11.6808 20.7C12.2008 20.7 12.6608 20.8133 13.0608 21.04C13.4674 21.2667 13.7841 21.58 14.0108 21.98C14.2441 22.38 14.3608 22.8433 14.3608 23.37C14.3608 23.89 14.2441 24.3533 14.0108 24.76C13.7841 25.16 13.4674 25.4767 13.0608 25.71C12.6541 25.9367 12.1941 26.05 11.6808 26.05ZM11.6808 25.42C12.0608 25.42 12.3974 25.3367 12.6908 25.17C12.9841 24.9967 13.2141 24.7567 13.3808 24.45C13.5541 24.1367 13.6408 23.7767 13.6408 23.37C13.6408 22.9567 13.5541 22.5967 13.3808 22.29C13.2141 21.9833 12.9841 21.7467 12.6908 21.58C12.3974 21.4067 12.0641 21.32 11.6908 21.32C11.3174 21.32 10.9841 21.4067 10.6908 21.58C10.3974 21.7467 10.1641 21.9833 9.99078 22.29C9.81745 22.5967 9.73078 22.9567 9.73078 23.37C9.73078 23.7767 9.81745 24.1367 9.99078 24.45C10.1641 24.7567 10.3974 24.9967 10.6908 25.17C10.9841 25.3367 11.3141 25.42 11.6808 25.42ZM18.4903 20.7C18.917 20.7 19.2903 20.7833 19.6103 20.95C19.937 21.11 20.1903 21.3567 20.3703 21.69C20.557 22.0233 20.6503 22.4433 20.6503 22.95V26H19.9403V23.02C19.9403 22.4667 19.8003 22.05 19.5203 21.77C19.247 21.4833 18.8603 21.34 18.3603 21.34C17.987 21.34 17.6603 21.4167 17.3803 21.57C17.107 21.7167 16.8936 21.9333 16.7403 22.22C16.5936 22.5 16.5203 22.84 16.5203 23.24V26H15.8103V20.75H16.4903V22.19L16.3803 21.92C16.547 21.54 16.8136 21.2433 17.1803 21.03C17.547 20.81 17.9836 20.7 18.4903 20.7ZM24.8081 27.99C24.3281 27.99 23.8681 27.92 23.4281 27.78C22.9881 27.64 22.6315 27.44 22.3581 27.18L22.7181 26.64C22.9648 26.86 23.2681 27.0333 23.6281 27.16C23.9948 27.2933 24.3815 27.36 24.7881 27.36C25.4548 27.36 25.9448 27.2033 26.2581 26.89C26.5715 26.5833 26.7281 26.1033 26.7281 25.45V24.14L26.8281 23.24L26.7581 22.34V20.75H27.4381V25.36C27.4381 26.2667 27.2148 26.93 26.7681 27.35C26.3281 27.7767 25.6748 27.99 24.8081 27.99ZM24.6781 25.8C24.1781 25.8 23.7281 25.6933 23.3281 25.48C22.9281 25.26 22.6115 24.9567 22.3781 24.57C22.1515 24.1833 22.0381 23.74 22.0381 23.24C22.0381 22.74 22.1515 22.3 22.3781 21.92C22.6115 21.5333 22.9281 21.2333 23.3281 21.02C23.7281 20.8067 24.1781 20.7 24.6781 20.7C25.1448 20.7 25.5648 20.7967 25.9381 20.99C26.3115 21.1833 26.6081 21.47 26.8281 21.85C27.0481 22.23 27.1581 22.6933 27.1581 23.24C27.1581 23.7867 27.0481 24.25 26.8281 24.63C26.6081 25.01 26.3115 25.3 25.9381 25.5C25.5648 25.7 25.1448 25.8 24.6781 25.8ZM24.7481 25.17C25.1348 25.17 25.4781 25.09 25.7781 24.93C26.0781 24.7633 26.3148 24.5367 26.4881 24.25C26.6615 23.9567 26.7481 23.62 26.7481 23.24C26.7481 22.86 26.6615 22.5267 26.4881 22.24C26.3148 21.9533 26.0781 21.73 25.7781 21.57C25.4781 21.4033 25.1348 21.32 24.7481 21.32C24.3681 21.32 24.0248 21.4033 23.7181 21.57C23.4181 21.73 23.1815 21.9533 23.0081 22.24C22.8415 22.5267 22.7581 22.86 22.7581 23.24C22.7581 23.62 22.8415 23.9567 23.0081 24.25C23.1815 24.5367 23.4181 24.7633 23.7181 24.93C24.0248 25.09 24.3681 25.17 24.7481 25.17ZM31.5538 26.05C31.0472 26.05 30.5905 25.9367 30.1838 25.71C29.7838 25.4767 29.4672 25.16 29.2338 24.76C29.0005 24.3533 28.8838 23.89 28.8838 23.37C28.8838 22.8433 29.0005 22.38 29.2338 21.98C29.4672 21.58 29.7838 21.2667 30.1838 21.04C30.5838 20.8133 31.0405 20.7 31.5538 20.7C32.0738 20.7 32.5338 20.8133 32.9338 21.04C33.3405 21.2667 33.6572 21.58 33.8838 21.98C34.1172 22.38 34.2338 22.8433 34.2338 23.37C34.2338 23.89 34.1172 24.3533 33.8838 24.76C33.6572 25.16 33.3405 25.4767 32.9338 25.71C32.5272 25.9367 32.0672 26.05 31.5538 26.05ZM31.5538 25.42C31.9338 25.42 32.2705 25.3367 32.5638 25.17C32.8572 24.9967 33.0872 24.7567 33.2538 24.45C33.4272 24.1367 33.5138 23.7767 33.5138 23.37C33.5138 22.9567 33.4272 22.5967 33.2538 22.29C33.0872 21.9833 32.8572 21.7467 32.5638 21.58C32.2705 21.4067 31.9372 21.32 31.5638 21.32C31.1905 21.32 30.8572 21.4067 30.5638 21.58C30.2705 21.7467 30.0372 21.9833 29.8638 22.29C29.6905 22.5967 29.6038 22.9567 29.6038 23.37C29.6038 23.7767 29.6905 24.1367 29.8638 24.45C30.0372 24.7567 30.2705 24.9967 30.5638 25.17C30.8572 25.3367 31.1872 25.42 31.5538 25.42ZM38.4505 26V19H41.3005C42.0472 19 42.7005 19.15 43.2605 19.45C43.8272 19.7433 44.2672 20.1533 44.5805 20.68C44.8939 21.2067 45.0505 21.8133 45.0505 22.5C45.0505 23.1867 44.8939 23.7933 44.5805 24.32C44.2672 24.8467 43.8272 25.26 43.2605 25.56C42.7005 25.8533 42.0472 26 41.3005 26H38.4505ZM39.1905 25.36H41.2605C41.8805 25.36 42.4172 25.24 42.8705 25C43.3305 24.7533 43.6872 24.4167 43.9405 23.99C44.1939 23.5567 44.3205 23.06 44.3205 22.5C44.3205 21.9333 44.1939 21.4367 43.9405 21.01C43.6872 20.5833 43.3305 20.25 42.8705 20.01C42.4172 19.7633 41.8805 19.64 41.2605 19.64H39.1905V25.36ZM46.7123 26V19H49.7323C50.5123 19 51.1156 19.1567 51.5423 19.47C51.9756 19.7833 52.1923 20.2267 52.1923 20.8C52.1923 21.18 52.1023 21.5 51.9223 21.76C51.7489 22.02 51.5089 22.2167 51.2023 22.35C50.9023 22.4833 50.5723 22.55 50.2123 22.55L50.3823 22.31C50.8289 22.31 51.2123 22.38 51.5323 22.52C51.8589 22.6533 52.1123 22.8567 52.2923 23.13C52.4723 23.3967 52.5623 23.73 52.5623 24.13C52.5623 24.7233 52.3423 25.1833 51.9023 25.51C51.4689 25.8367 50.8123 26 49.9323 26H46.7123ZM47.4523 25.39H49.9223C50.5356 25.39 51.0056 25.2867 51.3323 25.08C51.6589 24.8667 51.8223 24.53 51.8223 24.07C51.8223 23.6167 51.6589 23.2867 51.3323 23.08C51.0056 22.8667 50.5356 22.76 49.9223 22.76H47.3723V22.15H49.6823C50.2423 22.15 50.6756 22.0433 50.9823 21.83C51.2956 21.6167 51.4523 21.3 51.4523 20.88C51.4523 20.4533 51.2956 20.1367 50.9823 19.93C50.6756 19.7167 50.2423 19.61 49.6823 19.61H47.4523V25.39Z" fill="#549387"/>
</svg>
